<svg width="25" height="24" viewBox="0 0 25 24" fill="none" xmlns="http://www.w3.org/2000/svg">
<path d="M21.6171 12.79C21.4598 14.4922 20.8209 16.1144 19.7753 17.4668C18.7297 18.8192 17.3206 19.8458 15.7128 20.4265C14.105 21.0073 12.3651 21.1181 10.6966 20.7461C9.02811 20.3741 7.50008 19.5345 6.29131 18.3258C5.08255 17.117 4.24303 15.589 3.871 13.9205C3.49896 12.252 3.6098 10.5121 4.19055 8.9043C4.77129 7.29651 5.79792 5.88737 7.1503 4.84175C8.50268 3.79614 10.1249 3.15731 11.8271 3C10.8305 4.34827 10.3509 6.00945 10.4756 7.68141C10.6003 9.35338 11.321 10.9251 12.5065 12.1106C13.692 13.2961 15.2637 14.0168 16.9357 14.1415C18.6076 14.2662 20.2688 13.7866 21.6171 12.79V12.79Z" stroke="#7635DC" stroke-width="2.32432" stroke-linecap="round" stroke-linejoin="round"/>
</svg>
