<svg width="41" height="41" viewBox="0 0 41 41" fill="none" xmlns="http://www.w3.org/2000/svg">
<g clip-path="url(#clip0_1_547)">
<path d="M20.6808 40.7679C31.8687 40.7679 40.9382 31.6984 40.9382 20.5106C40.9382 9.32274 31.8687 0.25322 20.6808 0.25322C9.493 0.25322 0.423462 9.32274 0.423462 20.5106C0.423462 31.6984 9.493 40.7679 20.6808 40.7679Z" fill="#E0E0E0"/>
<path d="M20.6777 40.1522C31.6954 40.1522 40.6271 31.2205 40.6271 20.2027C40.6271 9.18489 31.6954 0.253204 20.6777 0.253204C9.65985 0.253204 0.728149 9.18489 0.728149 20.2027C0.728149 31.2205 9.65985 40.1522 20.6777 40.1522Z" fill="white"/>
<mask id="mask0_1_547" style="mask-type:luminance" maskUnits="userSpaceOnUse" x="7" y="6" width="27" height="28">
<path d="M33.5918 17.8631H20.9694V23.0968H28.235C27.5577 26.4217 24.7253 28.3304 20.9694 28.3304C16.5362 28.3304 12.965 24.7592 12.965 20.326C12.965 15.8928 16.5362 12.3216 20.9694 12.3216C22.8782 12.3216 24.6022 12.9989 25.9568 14.1072L29.8974 10.1665C27.4961 8.07308 24.4175 6.78006 20.9694 6.78006C13.4576 6.78006 7.42346 12.8142 7.42346 20.326C7.42346 27.8379 13.4576 33.872 20.9694 33.872C27.7424 33.872 33.8996 28.9462 33.8996 20.326C33.8996 19.5256 33.7765 18.6636 33.5918 17.8631Z" fill="white"/>
</mask>
<g mask="url(#mask0_1_547)">
<path d="M6.1969 28.3304V12.3216L16.6642 20.326L6.1969 28.3304Z" fill="#FBBC05"/>
</g>
<mask id="mask1_1_547" style="mask-type:luminance" maskUnits="userSpaceOnUse" x="7" y="6" width="27" height="28">
<path d="M33.5918 17.8631H20.9694V23.0968H28.235C27.5577 26.4217 24.7253 28.3304 20.9694 28.3304C16.5362 28.3304 12.965 24.7592 12.965 20.326C12.965 15.8928 16.5362 12.3216 20.9694 12.3216C22.8782 12.3216 24.6022 12.9989 25.9568 14.1072L29.8974 10.1665C27.4961 8.07308 24.4175 6.78006 20.9694 6.78006C13.4576 6.78006 7.42346 12.8142 7.42346 20.326C7.42346 27.8379 13.4576 33.872 20.9694 33.872C27.7424 33.872 33.8996 28.9462 33.8996 20.326C33.8996 19.5256 33.7765 18.6636 33.5918 17.8631Z" fill="white"/>
</mask>
<g mask="url(#mask1_1_547)">
<path d="M6.1969 12.3216L16.6642 20.326L20.9743 16.5701L35.7517 14.1688V5.54861H6.1969V12.3216Z" fill="#EA4335"/>
</g>
<mask id="mask2_1_547" style="mask-type:luminance" maskUnits="userSpaceOnUse" x="7" y="6" width="27" height="28">
<path d="M33.5918 17.8632H20.9694V23.0968H28.235C27.5577 26.4217 24.7253 28.3305 20.9694 28.3305C16.5362 28.3305 12.965 24.7593 12.965 20.3261C12.965 15.8928 16.5362 12.3216 20.9694 12.3216C22.8782 12.3216 24.6022 12.9989 25.9568 14.1072L29.8974 10.1666C27.4961 8.07313 24.4175 6.78011 20.9694 6.78011C13.4576 6.78011 7.42346 12.8142 7.42346 20.3261C7.42346 27.8379 13.4576 33.872 20.9694 33.872C27.7424 33.872 33.8996 28.9462 33.8996 20.3261C33.8996 19.5256 33.7765 18.6636 33.5918 17.8632Z" fill="white"/>
</mask>
<g mask="url(#mask2_1_547)">
<path d="M6.1969 28.3305L24.6686 14.1688L29.5329 14.7845L35.7517 5.54866V35.1035H6.1969V28.3305Z" fill="#34A853"/>
</g>
<mask id="mask3_1_547" style="mask-type:luminance" maskUnits="userSpaceOnUse" x="7" y="6" width="27" height="28">
<path d="M33.5918 17.8632H20.9694V23.0968H28.235C27.5577 26.4217 24.7253 28.3305 20.9694 28.3305C16.5362 28.3305 12.965 24.7593 12.965 20.3261C12.965 15.8928 16.5362 12.3216 20.9694 12.3216C22.8782 12.3216 24.6022 12.9989 25.9568 14.1072L29.8974 10.1666C27.4961 8.07313 24.4175 6.78011 20.9694 6.78011C13.4576 6.78011 7.42346 12.8142 7.42346 20.3261C7.42346 27.8379 13.4576 33.872 20.9694 33.872C27.7424 33.872 33.8996 28.9462 33.8996 20.3261C33.8996 19.5256 33.7765 18.6636 33.5918 17.8632Z" fill="white"/>
</mask>
<g mask="url(#mask3_1_547)">
<path d="M35.7551 35.1034L16.6676 20.326L14.2047 18.4789L35.7551 12.3216V35.1034Z" fill="#4285F4"/>
</g>
</g>
<defs>
<clipPath id="clip0_1_547">
<rect width="40.4531" height="40.5147" fill="white" transform="translate(0.423462 0.253204)"/>
</clipPath>
</defs>
</svg>
