<svg width="91" height="102" viewBox="0 0 91 102" fill="none" xmlns="http://www.w3.org/2000/svg">
<path d="M45.5 68.1867C39.2878 68.1867 34.25 63.1489 34.25 56.9367V34.4367H0.5V56.9367C0.5 57.0766 0.5 57.2138 0.5 57.3538C0.722256 72.6949 13.229 85.0617 28.6223 85.0617C44.0156 85.0617 56.7473 72.4699 56.7473 56.9367C56.7473 63.1489 51.7095 68.1867 45.4973 68.1867H45.5Z" fill="#7C4DC7"/>
<path d="M34.25 34.3241C34.25 15.6848 19.1393 0.574097 0.5 0.574097V34.4366H34.25V34.3241Z" fill="#7C4DC7"/>
<path d="M90.5003 0.68634C71.8609 0.68634 56.7502 15.797 56.7502 34.4364H90.5003V0.68634Z" fill="#670DD6"/>
<path d="M56.7502 34.4364V56.9364C56.7502 72.4696 44.1585 85.0614 28.6252 85.0614C13.092 85.0614 0.725186 72.6919 0.50293 57.3535C0.725186 82.0157 20.7859 101.936 45.5002 101.936C70.2146 101.936 90.5003 81.7907 90.5003 56.9364V34.4364H56.7502Z" fill="#670DD6"/>
</svg>
